<?xml version="1.0" encoding="UTF-8"?>
<svg version="1.1" xmlns="http://www.w3.org/2000/svg" width="1024" height="1024">
<path d="M0 0 C337.92 0 675.84 0 1024 0 C1024 337.92 1024 675.84 1024 1024 C686.08 1024 348.16 1024 0 1024 C0 686.08 0 348.16 0 0 Z " fill="#082232" transform="translate(0,0)"/>
<path d="M0 0 C0.69558554 -0.00235223 1.39117108 -0.00470446 2.10783496 -0.00712797 C4.4560439 -0.01382443 6.80419758 -0.01335955 9.15241528 -0.01294994 C10.8460221 -0.01624815 12.53962813 -0.01997363 14.23323315 -0.02409142 C18.90091945 -0.03412419 23.56859288 -0.03783026 28.23628843 -0.04048073 C33.26503286 -0.04437993 38.29376708 -0.05395844 43.322505 -0.0626936 C55.47266515 -0.0824675 67.62282614 -0.09252478 79.77299836 -0.10142139 C85.49089362 -0.10580222 91.20878795 -0.11116951 96.92668247 -0.11641026 C115.92699809 -0.13342244 134.92731313 -0.14791793 153.92763519 -0.155159 C158.85967351 -0.15706897 163.79171182 -0.15898929 168.72375011 -0.16094494 C169.94962242 -0.16142868 171.17549472 -0.16191242 172.43851467 -0.16241082 C192.30916841 -0.17071606 212.17976203 -0.19606137 232.05038951 -0.22852562 C252.4381984 -0.26156409 272.82597671 -0.27960479 293.21381253 -0.28280324 C304.66613567 -0.28497117 316.11837112 -0.29376129 327.57066822 -0.31926441 C337.32120556 -0.34092745 347.07163392 -0.3490435 356.82219259 -0.33929763 C361.79912182 -0.33474033 366.775826 -0.33672198 371.75272465 -0.35605907 C376.3069387 -0.3736015 380.86076203 -0.37276601 385.41497972 -0.35716178 C387.06438495 -0.3547721 388.7138166 -0.35917925 390.36318127 -0.37099043 C392.6026753 -0.38603694 394.84077186 -0.37648888 397.08023071 -0.36076355 C398.94715457 -0.36222876 398.94715457 -0.36222876 400.85179406 -0.36372358 C404.88688043 0.23124246 407.0220732 1.66919808 410.22887707 4.13422108 C411.06805676 4.7452367 411.90723644 5.35625233 412.77184582 5.98578358 C415.72268019 8.56600441 418.1427445 11.42765046 420.54137707 14.50922108 C421.25704845 15.42634876 421.25704845 15.42634876 421.98717785 16.36200428 C438.65323126 38.20442326 447.7414499 64.82969088 447.61655712 92.22729969 C447.62074221 93.68433977 447.62622609 95.14137659 447.63287693 96.59840751 C447.64719534 100.55670101 447.6431301 104.5147839 447.63571012 108.47308826 C447.63094692 112.75939295 447.64351561 117.0456541 447.65372753 121.33194447 C447.67085675 129.70969257 447.67176819 138.08736548 447.66651463 146.46512654 C447.66246243 153.27579954 447.6639289 160.08645043 447.66926289 166.89712238 C447.67001131 167.86884124 447.67075973 168.8405601 447.67153083 169.84172498 C447.67306239 171.81610293 447.67460074 173.79048087 447.6761458 175.76485881 C447.68984835 194.24583055 447.68444788 212.72675986 447.67296059 231.20773062 C447.66301994 248.10288802 447.67598724 264.99793603 447.69989478 281.89307657 C447.72429134 299.26529658 447.73389293 316.63746565 447.72724205 334.00970244 C447.72375245 343.7534022 447.72596544 353.49701777 447.74349308 363.24070454 C447.75822155 371.53057528 447.75884149 379.82030244 447.74142217 388.11017039 C447.73291713 392.33643343 447.73075067 396.56244003 447.74607372 400.78868961 C447.75994453 404.66238633 447.75512743 408.53560744 447.73583449 412.40927681 C447.73208164 413.80537964 447.73497577 415.20152079 447.74544614 416.5975894 C447.82613218 428.1859591 446.28484997 437.89497851 438.01403332 446.48187733 C430.9897747 452.9835434 423.55895527 454.44430632 414.25019741 454.39707661 C413.10209178 454.40323451 413.10209178 454.40323451 411.93079209 454.40951681 C409.37507902 454.42079396 406.81958365 454.41795024 404.26385021 454.41510487 C402.40933541 454.42027574 400.55482284 454.42630305 398.70031333 454.43311167 C393.61083598 454.44921583 388.5214151 454.4528288 383.43191528 454.4543066 C377.94028053 454.45801388 372.44867487 454.4731115 366.957057 454.48657703 C354.95297965 454.51371749 342.94891569 454.52578853 330.94481277 454.53459835 C323.44827841 454.54012665 315.9517492 454.5486019 308.45521832 454.5576067 C287.69529223 454.58198677 266.9353694 454.60265836 246.17542934 454.60935688 C244.83388859 454.60980014 243.49234783 454.61024371 242.15080707 454.61068758 C240.80608355 454.61112886 239.46136003 454.61156982 238.11663651 454.61201048 C235.41902399 454.61289557 232.72141146 454.6137898 230.02379894 454.61468983 C229.35495193 454.61490861 228.68610492 454.61512739 227.99698981 454.6153528 C206.30845569 454.62261445 184.62005525 454.65446 162.93157232 454.70107055 C139.98685182 454.75029053 117.042185 454.77769013 94.09740615 454.78009272 C81.59528995 454.78192579 69.09334888 454.7934199 56.59128094 454.82973194 C45.94691689 454.86053979 35.30278213 454.87077139 24.65838197 454.85425574 C19.2289525 454.84644513 13.79998473 454.84828926 8.37061214 454.87637043 C3.39609687 454.90186356 -1.57761014 454.89944166 -6.55212441 454.87518901 C-8.3475186 454.87127752 -10.14297019 454.87742095 -11.93828377 454.89487773 C-23.30146781 454.99833515 -32.52106992 454.16099501 -41.6813848 446.5462718 C-49.72328967 438.13856393 -50.35617245 427.73069938 -50.2790575 416.66501331 C-50.2836733 415.21457574 -50.29003076 413.76414284 -50.29796648 412.31371963 C-50.3145919 408.35004104 -50.30644441 404.38675002 -50.29402161 400.42307043 C-50.28494465 396.13922565 -50.29895448 391.85544597 -50.30994129 387.57161427 C-50.32770747 379.18545645 -50.32389368 370.79944203 -50.31229073 362.41327865 C-50.30324318 355.59016406 -50.30203815 348.76708955 -50.30638599 341.94397068 C-50.30699893 340.97139752 -50.30761186 339.99882436 -50.30824336 338.99677929 C-50.30952234 337.02064824 -50.3108192 335.0445172 -50.31213373 333.06838618 C-50.32353553 314.54375029 -50.31043524 296.01919361 -50.28893226 277.49457072 C-50.27108984 261.63352896 -50.27414258 245.77260443 -50.29260731 229.91156483 C-50.31406981 211.46699721 -50.32240732 193.02249916 -50.31015825 174.57792079 C-50.30888416 172.60615692 -50.30762668 170.63439303 -50.30638599 168.66262913 C-50.30576889 167.69266232 -50.30515179 166.72269552 -50.30451599 165.72333578 C-50.30107708 158.92131686 -50.30686039 152.11934239 -50.31630421 145.31733036 C-50.32758675 137.00855771 -50.32435507 128.69993597 -50.30318123 120.39118035 C-50.29274988 116.15979206 -50.28841127 111.92865428 -50.30177784 107.69726849 C-50.36061277 87.40244492 -50.13002214 67.58533502 -42.58362293 48.38422108 C-42.28883045 47.6138451 -41.99403797 46.84346912 -41.69031239 46.04974842 C-34.93377849 29.01579323 -24.54605655 12.30352869 -9.77112293 1.13422108 C-6.31591647 -0.01751441 -3.64664229 0.00524244 0 0 Z " fill="#0F91A0" transform="translate(313.7711229324341,286.86577892303467)"/>
<path d="M0 0 C44.88 0 89.76 0 136 0 C137.98 3.63 139.96 7.26 142 11 C148.95030336 18.06240503 156.49606294 23.0521855 166.62573242 23.17700195 C167.53735641 23.18983719 168.44898041 23.20267242 169.38822937 23.21589661 C170.36741837 23.22328354 171.34660736 23.23067047 172.35546875 23.23828125 C173.37167801 23.246353 174.38788727 23.25442474 175.43489075 23.26274109 C177.58588973 23.27656344 179.73691047 23.28729385 181.88793945 23.29516602 C184.07876042 23.30667532 186.26955357 23.32711035 188.46020508 23.35668945 C191.63381924 23.39953408 194.80660061 23.41555978 197.98046875 23.42578125 C198.94953659 23.44328934 199.91860443 23.46079742 200.91703796 23.47883606 C210.81434961 23.44761358 218.75229833 19.68314386 226 13 C229.28500062 9.22698377 231.76078932 5.47842137 234 1 C278.88 1 323.76 1 370 1 C370 76.57 370 152.14 370 230 C247.9 230 125.8 230 0 230 C0 154.1 0 78.2 0 0 Z " fill="#082231" transform="translate(327,457)"/>
<path d="M0 0 C58.74 0 117.48 0 178 0 C178 8.91 178 17.82 178 27 C128.5 27 79 27 28 27 C28 113.79 28 200.58 28 290 C160.99 290 293.98 290 431 290 C431 203.21 431 116.42 431 27 C381.17 27 331.34 27 280 27 C280 18.42 280 9.84 280 1 C338.74 1 397.48 1 458 1 C458.20165675 76.33447879 458.20165675 76.33447879 458.24414062 107.75195312 C458.25393028 114.94344133 458.26403278 122.13492899 458.2746582 129.32641602 C458.27597695 130.2277767 458.27729569 131.12913739 458.2786544 132.05781204 C458.30041283 146.61781496 458.33983841 161.17771936 458.38576398 175.73766383 C458.43248867 190.67531575 458.46028695 205.61291602 458.47044247 220.55063802 C458.47730993 229.77126181 458.49901542 238.99160724 458.53958233 248.21214537 C458.56597151 254.53132807 458.57400971 260.85036644 458.56750689 267.16960027 C458.56429797 270.8179158 458.56928534 274.46574426 458.59602737 278.11397362 C458.62479032 282.06669849 458.61496371 286.01878509 458.60127258 289.97160339 C458.61583679 291.12821462 458.630401 292.28482585 458.64540654 293.47648591 C458.57235557 301.2433828 458.57235557 301.2433828 455.58742046 305.18927479 C451.50751412 308.04446952 448.71902476 308.14365323 443.86778641 308.13142776 C443.12101513 308.1334804 442.37424385 308.13553303 441.60484314 308.13764787 C439.07649137 308.14334901 436.54819354 308.1418568 434.01983643 308.14044189 C432.19922407 308.14302375 430.37861228 308.14603641 428.55800128 308.1494453 C423.53460521 308.1575397 418.5112234 308.15930622 413.48782158 308.16004276 C408.0780079 308.1618891 402.66820171 308.16943431 397.25839233 308.17617798 C385.41964349 308.18977929 373.58089803 308.19578886 361.74214268 308.20018864 C354.35457093 308.20294811 346.96700049 308.20718492 339.57942963 308.21169281 C319.13884691 308.22388798 298.69826526 308.2341867 278.25767899 308.2375679 C276.94857443 308.23778747 275.63946987 308.23800703 274.29069547 308.23823325 C272.32224839 308.23856067 272.32224839 308.23856067 270.3140347 308.2388947 C267.65466897 308.23933817 264.99530323 308.23978474 262.3359375 308.24023438 C260.3572172 308.24056652 260.3572172 308.24056652 258.33852276 308.24090537 C236.95788396 308.24472151 215.57728131 308.26231043 194.19665542 308.2855939 C172.26302108 308.30928744 150.32940384 308.32176885 128.39575648 308.32293582 C116.07376804 308.32385372 103.75182397 308.32963494 91.42984772 308.34775543 C80.93819354 308.36312951 70.44659744 308.36829285 59.95493415 308.36001733 C54.59932847 308.35610122 49.24383984 308.35708715 43.88824844 308.37107468 C38.9880257 308.38375614 34.08800865 308.38266694 29.18778643 308.37048396 C27.41251373 308.36851694 25.63722674 308.37165146 23.86197415 308.38032833 C21.45292395 308.39135998 19.04460749 308.3839762 16.63557816 308.3719368 C15.59639779 308.38332959 15.59639779 308.38332959 14.53622389 308.39495254 C9.05187118 308.33559043 5.05140721 307.06360062 1.14807147 303.13706374 C-0.26130785 300.51359166 -0.37285371 298.78010953 -0.36914349 295.80698013 C-0.37511663 294.75051387 -0.38108978 293.69404761 -0.38724393 292.60556722 C-0.3785054 291.44604315 -0.36976688 290.28651907 -0.36076355 289.09185791 C-0.36332682 287.85929095 -0.3658901 286.62672399 -0.36853105 285.35680652 C-0.37262297 281.93377862 -0.36322932 278.51126356 -0.34819686 275.08829761 C-0.33525589 271.39780859 -0.33962458 267.70733576 -0.34190369 264.01683044 C-0.34347765 257.62221769 -0.33405561 251.22769667 -0.31719017 244.83310699 C-0.29282139 235.58758968 -0.28499708 226.34211677 -0.2812262 217.09657082 C-0.27465838 202.09674471 -0.25468825 187.09696752 -0.22631836 172.09716797 C-0.19878634 157.52523032 -0.17758296 142.95330601 -0.16479492 128.38134766 C-0.16399093 127.47415124 -0.16318694 126.56695482 -0.16235858 125.63226759 C-0.15612041 118.5375216 -0.1502496 111.4427753 -0.14449489 104.3480289 C-0.11618773 69.56530771 -0.05583431 34.78270894 0 0 Z " fill="#082232" transform="translate(283,414)"/>
<path d="M0 0 C1.27692835 -0.0142989 2.55385669 -0.02859781 3.86947984 -0.04333001 C7.40746113 -0.08192754 10.94461093 -0.08311592 14.48276269 -0.0779556 C18.30100493 -0.07878894 22.11895771 -0.11394317 25.9370575 -0.14437866 C33.41500393 -0.19804845 40.89267997 -0.21827547 48.3708028 -0.22507795 C54.44995378 -0.23066395 60.52901304 -0.24535988 66.6081295 -0.26645851 C83.84777687 -0.32504379 101.08720176 -0.35734642 118.3269491 -0.35767265 C119.25612178 -0.35769564 120.18529447 -0.35771863 121.1426239 -0.35774231 C122.53808683 -0.35776785 122.53808683 -0.35776785 123.96174093 -0.3577939 C139.0388982 -0.35971038 154.11503536 -0.42501419 169.1918752 -0.51879366 C184.67673473 -0.61434587 200.16109343 -0.66132 215.6462552 -0.65816671 C224.33858195 -0.65742362 233.02978511 -0.6768785 241.72184181 -0.74887657 C249.12272446 -0.80983202 256.52201356 -0.82578343 263.92305604 -0.78359135 C267.69841929 -0.76336501 271.47069261 -0.76394548 275.24574089 -0.82141495 C299.04644751 -1.1617287 299.04644751 -1.1617287 304.16351891 3.57311058 C306.69187183 6.68902429 308.10005167 10.03652712 309.4563446 13.80900574 C310.01577435 15.03000195 310.58918674 16.2446977 311.17703724 17.45226765 C318.31840714 32.27359374 320.91513892 49.91797186 323.3313446 66.05900574 C323.45146912 66.84227234 323.57159363 67.62553894 323.69535828 68.43254089 C324.67956647 75.69573859 324.4563446 82.28668419 324.4563446 89.80900574 C281.2263446 89.80900574 237.9963446 89.80900574 193.4563446 89.80900574 C192.4663446 83.86900574 192.4663446 83.86900574 191.4563446 77.80900574 C188.97033489 72.74820025 186.61341546 70.92444357 181.4563446 68.80900574 C178.78712084 68.53034701 176.35724203 68.39771881 173.69438171 68.42082214 C172.94075851 68.41556519 172.18713531 68.41030823 171.41067505 68.40489197 C168.93479818 68.39175392 166.45957106 68.40040682 163.98368835 68.41056824 C162.2554614 68.40854593 160.52723527 68.40563318 158.79901123 68.40187073 C155.18364812 68.39745596 151.56850791 68.40385184 147.95317078 68.41789246 C143.32391368 68.43499675 138.69517795 68.42513005 134.0659399 68.40717506 C130.4996855 68.39632522 126.93355437 68.39978884 123.36729622 68.40755844 C121.66049195 68.40955646 119.95367641 68.40711516 118.2468853 68.40011978 C115.8605936 68.39248399 113.47514222 68.40413802 111.08891296 68.42082214 C110.38695801 68.41474945 109.68500305 68.40867676 108.96177673 68.40242004 C103.80835856 68.4690278 100.56081954 69.7204738 96.9094696 73.34416199 C91.91190442 79.68847364 92.40210419 80.35140988 91.4563446 89.80900574 C48.5563446 89.80900574 5.6563446 89.80900574 -38.5436554 89.80900574 C-36.21017234 60.64046751 -36.21017234 60.64046751 -34.2311554 50.68400574 C-34.0124176 49.55567322 -33.79367981 48.4273407 -33.5683136 47.26481628 C-31.22830469 35.61679059 -27.76220586 24.961251 -22.6061554 14.24650574 C-22.29444397 13.59077576 -21.98273254 12.93504578 -21.66157532 12.25944519 C-16.33397327 1.73597124 -11.48927405 -0.08282751 0 0 Z " fill="#082333" transform="translate(369.5436553955078,305.1909942626953)"/>
<path d="M0 0 C33.66 0 67.32 0 102 0 C102 9.24 102 18.48 102 28 C78.57 28 55.14 28 31 28 C31 38.89 31 49.78 31 61 C50.8 61 70.6 61 91 61 C91 70.24 91 79.48 91 89 C71.2 89 51.4 89 31 89 C31 99.89 31 110.78 31 122 C54.43 122 77.86 122 102 122 C102 130.91 102 139.82 102 149 C68.34 149 34.68 149 0 149 C0 99.83 0 50.66 0 0 Z " fill="#0F92A1" transform="translate(392,504)"/>
<path d="M0 0 C37.29 0 74.58 0 113 0 C113 22.81760583 113 22.81760583 106.0390625 30.4609375 C102.63058298 34.35792874 99.67869444 38.52915239 96.6875 42.75 C95.57721425 44.29028458 94.46522109 45.82933979 93.3515625 47.3671875 C92.79629883 48.13514648 92.24103516 48.90310547 91.66894531 49.69433594 C90.03903866 51.94606772 88.40656237 54.19591409 86.7734375 56.4453125 C80.44008222 65.17752002 74.19647485 73.96640246 68.02416992 82.81323242 C64.28472583 88.1717957 60.5155881 93.50689758 56.70654297 98.81616211 C52.71781901 104.37973008 48.77833731 109.97782973 44.84521484 115.58081055 C44.35875488 116.27215088 43.87229492 116.96349121 43.37109375 117.67578125 C42.93724365 118.29364502 42.50339355 118.91150879 42.05639648 119.5480957 C41 121 41 121 40 122 C64.09 122.33 88.18 122.66 113 123 C113 131.91 113 140.82 113 150 C75.71 150 38.42 150 0 150 C0 123.66161933 0 123.66161933 8.51171875 114.10546875 C12.11687487 109.91808848 15.30729849 105.50566926 18.5 101 C19.59244837 99.48864163 20.68619492 97.97822075 21.78125 96.46875 C24.88688051 92.16864622 27.94892395 87.83891689 31 83.5 C38.39671197 72.9852932 45.9467236 62.58222761 53.5 52.1796875 C54.36347046 50.9884729 54.36347046 50.9884729 55.24438477 49.77319336 C56.33191511 48.27291898 57.42082815 46.77364537 58.51147461 45.27563477 C62.14693352 40.25836188 65.55646872 35.16529693 69 30 C46.23 29.67 23.46 29.34 0 29 C0 19.43 0 9.86 0 0 Z " fill="#0F91A0" transform="translate(522,503)"/>
<path d="M0 0 C21.12 0 42.24 0 64 0 C64.061875 9.425625 64.12375 18.85125 64.1875 28.5625 C64.22846802 33.00891968 64.22846802 33.00891968 64.27026367 37.54516602 C64.2790292 39.90640862 64.28667298 42.26765577 64.29296875 44.62890625 C64.3159906 46.45367493 64.3159906 46.45367493 64.33947754 48.31530762 C64.34142622 54.64006671 64.2165362 59.47641772 61 65 C57.18218415 68.62692506 54.13156273 70.10559752 48.89916992 70.17700195 C48.07789108 70.18983719 47.25661224 70.20267242 46.41044617 70.21589661 C45.52605362 70.22328354 44.64166107 70.23067047 43.73046875 70.23828125 C42.81670975 70.246353 41.90295074 70.25442474 40.96150208 70.26274109 C39.02733247 70.27657007 37.09313858 70.28729753 35.15893555 70.29516602 C32.20899957 70.31237458 29.26018579 70.35627051 26.31054688 70.40039062 C24.42969573 70.4105184 22.54883507 70.41903424 20.66796875 70.42578125 C19.7896489 70.44328934 18.91132904 70.46079742 18.00639343 70.47883606 C12.49177935 70.45941546 9.38005358 69.66526925 5 66 C0.3309456 61.07856428 -0.12842408 56.89186621 -0.11352539 50.29174805 C-0.11340454 49.15539917 -0.11328369 48.01905029 -0.11315918 46.8482666 C-0.10804321 45.66470581 -0.10292725 44.48114502 -0.09765625 43.26171875 C-0.09664917 42.16589478 -0.09564209 41.0700708 -0.09460449 39.94104004 C-0.0893815 35.85651601 -0.07542023 31.77200693 -0.0625 27.6875 C-0.041875 18.550625 -0.02125 9.41375 0 0 Z " fill="#082131" transform="translate(480,392)"/>
<path d="M0 0 C-0.42410156 0.8765625 -0.84820312 1.753125 -1.28515625 2.65625 C-5.14953502 10.90974482 -8.18599771 19.25361754 -10.75 28 C-11.03109619 28.94681641 -11.31219238 29.89363281 -11.60180664 30.86914062 C-15.60052028 44.91642284 -17.50045666 58.98738578 -18.6875 73.5 C-18.81762521 75.01699024 -18.94848183 76.53391792 -19.08007812 78.05078125 C-19.3964343 81.69982038 -19.69794549 85.34963909 -20 89 C-30.23 89 -40.46 89 -51 89 C-51.24249004 74.85474787 -51.3171486 61.75683274 -48 48 C-47.59974609 46.33324219 -47.59974609 46.33324219 -47.19140625 44.6328125 C-43.796335 32.28984235 -37.64528933 20.2507735 -30 10 C-29.46117187 9.08863281 -28.92234375 8.17726563 -28.3671875 7.23828125 C-21.37059832 -2.91668726 -11.09930875 -0.98680764 0 0 Z " fill="#082232" transform="translate(334,306)"/>
<path d="M0 0 C3.04317386 -0.13558695 6.08025562 -0.23437239 9.125 -0.3125 C10.40890625 -0.3753418 10.40890625 -0.3753418 11.71875 -0.43945312 C16.20851315 -0.52579472 18.43638289 -0.36066171 22.30859375 2.1171875 C25.08201459 5.08784727 27.61415995 8.10980185 29.9375 11.4375 C30.57981567 12.35221069 30.57981567 12.35221069 31.23510742 13.28540039 C44.13815365 32.10727517 49.40593278 52.06743901 49.125 74.6875 C49.08375 79.410625 49.0425 84.13375 49 89 C39.43 89 29.86 89 20 89 C19.71125 85.885625 19.4225 82.77125 19.125 79.5625 C18.93654105 77.61051754 18.74672107 75.65866528 18.5546875 73.70703125 C18.2269101 70.37242044 17.91563017 67.03790534 17.6328125 63.69921875 C15.4807558 41.49789911 8.85141272 20.37696825 0 0 Z " fill="#082233" transform="translate(692,306)"/>
<path d="M0 0 C44.88 0 89.76 0 136 0 C136.33 0.99 136.66 1.98 137 3 C70.175 2.505 70.175 2.505 2 2 C2 76.91 2 151.82 2 229 C123.11 229 244.22 229 369 229 C369 154.09 369 79.18 369 2 C324.78 2 280.56 2 235 2 C234.34 3.65 233.68 5.3 233 7 C232.67 6.34 232.34 5.68 232 5 C232.66 3.68 233.32 2.36 234 1 C278.88 1 323.76 1 370 1 C370 76.57 370 152.14 370 230 C247.9 230 125.8 230 0 230 C0 154.1 0 78.2 0 0 Z " fill="#07121E" transform="translate(327,457)"/>
<path d="M0 0 C1.98263174 3.74103727 1.78684622 7.2437408 1.75 11.4140625 C1.7799707 12.61192383 1.7799707 12.61192383 1.81054688 13.83398438 C1.80726876 17.79067198 1.58904519 20.00018712 -0.43359375 23.484375 C-2.873204 25.64070295 -3.98588128 26.18929132 -7.1875 26.4140625 C-7.9403125 26.48496094 -8.693125 26.55585938 -9.46875 26.62890625 C-12.05194408 26.45153905 -13.51809001 25.87840582 -15.6875 24.4765625 C-18.44689963 20.33746306 -18.09212123 16.96762044 -18.125 12.1015625 C-18.15787109 11.25078125 -18.19074219 10.4 -18.22460938 9.5234375 C-18.26345705 4.98885438 -18.18004151 3.09842609 -15.27734375 -0.56640625 C-10.29195167 -4.33364823 -4.96937496 -4.48624128 0 0 Z " fill="#0F93A2" transform="translate(520.6875,419.5234375)"/>
<path d="M0 0 C0.33 0.66 0.66 1.32 1 2 C-0.92333011 6.06036357 -3.40069448 8.37347975 -7 11 C-5.5140084 6.40693504 -3.14985318 3.56430755 0 0 Z " fill="#081422" transform="translate(605,564)"/>
<path d="M0 0 C0 3.66184524 -0.919642 5.02806 -3 8 C-5.1875 9.8125 -5.1875 9.8125 -7 11 C-5.22054913 6.95579349 -2.60470327 3.53921513 0 0 Z " fill="#071220" transform="translate(617,547)"/>
</svg>
