<?xml version="1.0" encoding="UTF-8"?>
<svg version="1.1" xmlns="http://www.w3.org/2000/svg" width="1024" height="1024">
<path d="M0 0 C337.92 0 675.84 0 1024 0 C1024 337.92 1024 675.84 1024 1024 C686.08 1024 348.16 1024 0 1024 C0 686.08 0 348.16 0 0 Z " fill="#0D2233" transform="translate(0,0)"/>
<path d="M0 0 C1.26285969 -0.01177436 2.52571939 -0.02354872 3.82684755 -0.03567988 C7.32120625 -0.06707458 10.81378514 -0.04873412 14.30811715 -0.02199829 C18.08059208 -0.00181575 21.85279209 -0.02775896 25.62522888 -0.04776001 C33.01098469 -0.07946625 40.39607296 -0.0680893 47.78182495 -0.04143386 C53.78470027 -0.02062612 59.7873923 -0.01582287 65.79029846 -0.02244759 C67.07222416 -0.0238533 67.07222416 -0.0238533 68.38004735 -0.02528741 C70.11622954 -0.02727293 71.85241169 -0.02930093 73.58859378 -0.03137095 C89.86582015 -0.04900773 106.14267968 -0.01839463 122.41982824 0.02924787 C136.38399123 0.06907614 150.34770387 0.06989517 164.31188965 0.04161072 C180.53113093 0.00878912 196.75011568 -0.00155753 212.96937704 0.02515787 C214.69914337 0.02795788 216.42890974 0.03073572 218.15867615 0.03349113 C219.00973632 0.03486605 219.8607965 0.03624097 220.73764637 0.03765755 C226.73274688 0.04585113 232.7277071 0.03817695 238.72279358 0.02450752 C246.02975151 0.00835571 253.33616711 0.01739972 260.64303553 0.05852479 C264.37072626 0.07889852 268.09754787 0.08814973 271.82525444 0.06703568 C275.86727833 0.04453327 279.90705981 0.07631676 283.94897461 0.11352539 C285.1261129 0.09859246 286.3032512 0.08365953 287.51606035 0.06827408 C293.024864 0.16399898 296.54336373 0.38701517 300.60254669 4.32732296 C303.62349973 7.88077999 305.96846571 11.74837959 308.0994873 15.88414001 C308.45526855 16.52093689 308.8110498 17.15773376 309.1776123 17.81382751 C317.48922488 33.59991184 318.19978686 49.22530875 318.10559082 66.70127869 C318.11073891 69.14722714 318.11802686 71.59317188 318.12727356 74.03910828 C318.1437691 79.94982639 318.13724097 85.86024039 318.11918534 91.77092852 C318.10508436 96.57455663 318.10128248 101.3780949 318.10462761 106.18174171 C318.10510505 106.868771 318.10558249 107.55580028 318.1060744 108.26364863 C318.10710084 109.65976119 318.1081562 111.05587372 318.10924017 112.45198623 C318.11777548 124.75015663 318.1012279 137.04816681 318.07141113 149.34629822 C318.04251186 161.26628831 318.03552702 173.18604828 318.05090332 185.10606384 C318.06766754 198.11967752 318.07170287 211.13318239 318.05419296 224.14679891 C318.0523487 225.5340365 318.05051397 226.92127411 318.04868889 228.30851173 C318.0477768 228.99091613 318.04686471 229.67332052 318.04592498 230.37640383 C318.04032627 235.17781607 318.04361988 239.979175 318.05023384 244.78058434 C318.0587748 251.23633288 318.04580304 257.69182446 318.01838493 264.14752197 C318.01149265 266.51707791 318.0114121 268.8866648 318.01860046 271.25621986 C318.02727487 274.48752007 318.01137268 277.71779108 317.989151 280.94900513 C317.99739177 281.88877817 318.00563254 282.82855121 318.01412302 283.79680222 C317.94364733 289.3392516 317.31077181 292.70447995 313.4744873 297.00914001 C309.76597602 299.66917464 307.23045671 300.38480087 302.69104099 300.38945675 C300.94692742 300.40211666 300.94692742 300.40211666 299.16757923 300.41503233 C297.89444133 300.40902228 296.62130342 300.40301224 295.30958557 300.39682007 C293.94010828 300.40099321 292.57063445 300.40647063 291.20116705 300.41313988 C287.43865614 300.42761587 283.67636388 300.42334312 279.91384089 300.41597307 C275.8558137 300.41124901 271.79783433 300.42374447 267.73982239 300.43399048 C259.79017543 300.45119873 251.84060744 300.45201431 243.89094669 300.44677757 C237.43039162 300.44273846 230.96985991 300.44417636 224.50930595 300.44952583 C223.13079074 300.45064847 223.13079074 300.45064847 221.72442673 300.45179378 C219.85754478 300.45332523 217.99066284 300.45486358 216.1237809 300.45640875 C198.61109689 300.47014108 181.09845753 300.46469092 163.58577453 300.45322353 C147.5595823 300.44329006 131.53350551 300.45623249 115.50733108 300.48015773 C99.05641126 300.50453226 82.60554524 300.51416067 66.15460771 300.507505 C56.91673357 300.50400915 47.67894823 300.50626891 38.44108772 300.52375603 C30.57719333 300.53845743 22.71345026 300.5391405 14.8495589 300.52168512 C10.836633 300.51315572 6.82397767 300.51107258 2.81106567 300.52633667 C-0.86231594 300.54013641 -4.53519398 300.53548208 -8.20854611 300.51609743 C-10.16732538 300.51053378 -12.12612998 300.52464823 -14.08486122 300.53945154 C-25.06288302 300.44699736 -25.06288302 300.44699736 -29.5255127 296.00914001 C-33.13404967 290.8980354 -32.95403564 285.96384427 -32.91992188 279.942276 C-32.92601298 278.93163397 -32.93210408 277.92099193 -32.93837976 276.87972438 C-32.95502297 273.49452591 -32.95023182 270.10970304 -32.94543457 266.72447205 C-32.95277448 264.29637257 -32.96136048 261.86827659 -32.97109985 259.44018555 C-32.99103108 253.52803492 -32.99669527 247.61597575 -32.99491197 241.70380123 C-32.99360263 236.89237981 -32.99741727 232.08098889 -33.00483704 227.26957321 C-33.00693636 225.88175833 -33.00903396 224.49394346 -33.01112986 223.10612857 C-33.01217338 222.41525189 -33.01321691 221.7243752 -33.01429206 221.01256286 C-33.03319182 207.94755164 -33.03214623 194.88259657 -33.02532274 181.81757735 C-33.01975829 169.89470461 -33.04052607 157.9720475 -33.0736832 146.04922511 C-33.10751976 133.78604484 -33.12257546 121.52296752 -33.11796618 109.25973976 C-33.11573011 102.38348492 -33.12083596 95.50742887 -33.14585876 88.63121414 C-33.16922569 82.15505687 -33.16616844 75.67923222 -33.14593124 69.20306206 C-33.14253712 66.8360897 -33.14754064 64.46908683 -33.16191483 62.10215569 C-33.23708174 48.79820689 -32.5961 37.4300174 -27.5255127 25.00914001 C-27.16304192 24.12039248 -26.80057114 23.23164494 -26.42711639 22.31596565 C-25.57731358 20.33065572 -24.64586515 18.42488115 -23.6505127 16.50914001 C-23.35016113 15.88523376 -23.04980957 15.26132751 -22.74035645 14.61851501 C-17.20944858 3.69215009 -12.44909443 -0.19594596 0 0 Z " fill="#227F96" transform="translate(369.5255126953125,294.99085998535156)"/>
<path d="M0 0 C34.32 0 68.64 0 104 0 C105.32 2.64 106.64 5.28 108 8 C110.14805352 10.09995699 110.14805352 10.09995699 112.5625 11.4375 C113.32691406 11.91058594 114.09132813 12.38367188 114.87890625 12.87109375 C120.47597644 15.85001325 126.31251948 15.26116581 132.5 15.3125 C133.634375 15.34150391 134.76875 15.37050781 135.9375 15.40039062 C144.05020572 15.46086378 152.66286763 14.85258675 159.00390625 9.2199707 C161.64536208 6.30501827 163.22407655 3.5518469 165 0 C198.99 0 232.98 0 268 0 C268 50.16 268 100.32 268 152 C179.56 152 91.12 152 0 152 C0 101.84 0 51.68 0 0 Z " fill="#0C2434" transform="translate(378,406)"/>
<path d="M0 0 C16.93262204 -0.02332869 33.86523908 -0.04097903 50.7978735 -0.05181217 C58.65944391 -0.05697519 66.52100435 -0.06401801 74.38256836 -0.07543945 C81.23225475 -0.0853861 88.08193392 -0.09185338 94.93162733 -0.09408849 C98.56069396 -0.09539563 102.18973994 -0.09848169 105.81879997 -0.10573006 C109.86350304 -0.11374356 113.90816989 -0.11399115 117.95288086 -0.11352539 C119.16488159 -0.11712067 120.37688232 -0.12071594 121.62561035 -0.12442017 C123.26843239 -0.12235817 123.26843239 -0.12235817 124.94444275 -0.12025452 C126.38105711 -0.12163721 126.38105711 -0.12163721 127.84669399 -0.12304783 C130 0 130 0 131 1 C131 5.95 131 10.9 131 16 C93.71 16 56.42 16 18 16 C18 73.42 18 130.84 18 190 C113.7 189.67 209.4 189.34 308 189 C308 132.24 308 75.48 308 17 C271.04 16.67 234.08 16.34 196 16 C196 11.05 196 6.1 196 1 C238.9 1 281.8 1 326 1 C326.08060607 51.57582983 326.08060607 51.57582983 326.09765625 72.70703125 C326.10954131 87.31983843 326.12354206 101.93262262 326.15087891 116.54541016 C326.17077532 127.18599563 326.18370751 137.82656251 326.18817699 148.46716607 C326.19079074 154.10445526 326.1969595 159.74169127 326.21146011 165.37896347 C326.22498487 170.67955991 326.22923304 175.980081 326.22621536 181.28069305 C326.22676782 183.23105147 326.23077554 185.18141228 326.23841095 187.13175583 C326.2482924 189.78486126 326.24599396 192.43767835 326.24050903 195.09078979 C326.24924756 196.2610086 326.24924756 196.2610086 326.25816262 197.4548682 C326.22824242 202.77175758 326.22824242 202.77175758 324 205 C321.68923092 205.25069833 321.68923092 205.25069833 318.73069763 205.25168228 C317.04409452 205.25950552 317.04409452 205.25950552 315.32341862 205.26748681 C314.07772319 205.26302537 312.83202776 205.25856392 311.54858398 205.25396729 C309.57578162 205.25864726 309.57578162 205.25864726 307.56312466 205.26342177 C303.90016346 205.27180739 300.23730584 205.26762753 296.57434416 205.26144934 C292.62882995 205.25694117 288.68333409 205.26390045 284.73782349 205.26940918 C277.00368286 205.27832238 269.26958095 205.27637262 261.53543878 205.2705839 C255.25212806 205.26607497 248.96882823 205.26545116 242.68551636 205.26763153 C241.34628952 205.26809123 241.34628952 205.26809123 239.98000759 205.26856022 C238.16650812 205.26919964 236.35300864 205.26984806 234.53950918 205.2705054 C217.51721251 205.27621434 200.49493735 205.26964198 183.47264421 205.25890467 C168.8531713 205.24996864 154.23373015 205.25152053 139.61425781 205.26074219 C122.65464918 205.27143488 105.69505942 205.27566496 88.73544788 205.26951766 C86.92845981 205.26888053 85.12147173 205.26825179 83.31448364 205.26763153 C81.98072548 205.2671687 81.98072548 205.2671687 80.62002271 205.26669653 C74.34114947 205.26496658 68.06228815 205.26789113 61.78341675 205.27259064 C54.13603042 205.27818837 46.48868518 205.27670645 38.84130359 205.26602915 C34.93630508 205.26075745 31.03137517 205.25874102 27.12637711 205.26532745 C22.90132983 205.27234615 18.67645715 205.26399012 14.45141602 205.25396729 C13.20572059 205.25842873 11.96002516 205.26289017 10.67658138 205.26748681 C9.55217931 205.26227132 8.42777723 205.25705582 7.26930237 205.25168228 C6.29298638 205.25135758 5.3166704 205.25103287 4.31076908 205.25069833 C2 205 2 205 0 203 C-0.19328772 200.31668414 -0.26045333 197.73698512 -0.24050903 195.05282593 C-0.24221788 194.22215595 -0.24392673 193.39148597 -0.24568737 192.53564417 C-0.24899651 189.73640445 -0.23795525 186.93740144 -0.22705078 184.13818359 C-0.22648697 182.13791408 -0.22680263 180.13764415 -0.22793579 178.13737488 C-0.2285115 172.69341609 -0.21672202 167.24954476 -0.20278788 161.80560637 C-0.19031673 156.12143613 -0.18911288 150.43726408 -0.18673706 144.75308228 C-0.18051163 133.98313381 -0.16408647 123.21322576 -0.14403808 112.44329512 C-0.12171209 100.18472099 -0.11069397 87.92614496 -0.10064721 75.66755557 C-0.07972114 50.4450146 -0.04452457 25.22250956 0 0 Z " fill="#0C2434" transform="translate(349,379)"/>
<path d="M0 0 C0.94258759 0.00291284 1.88517519 0.00582568 2.85632604 0.00882679 C4.34606252 0.00754515 4.34606252 0.00754515 5.86589468 0.00623763 C9.22095361 0.00457982 12.57596343 0.0101091 15.93101782 0.01555592 C18.32522353 0.01583775 20.71942934 0.01568013 23.113635 0.01511341 C28.28215861 0.0148851 33.45067094 0.01773642 38.61919111 0.02335125 C46.09208468 0.03146419 53.56497213 0.03408126 61.03786962 0.03533924 C73.16094721 0.03753009 85.28401809 0.04419106 97.40709203 0.05364186 C109.18638857 0.06281513 120.96568328 0.06989638 132.74498266 0.07414967 C133.83334846 0.07454375 133.83334846 0.07454375 134.94370145 0.0749458 C138.58356012 0.0762508 142.2234188 0.07751452 145.86327749 0.0787577 C176.0791404 0.08913133 206.29499517 0.10682465 236.5108518 0.12908131 C237.51886856 3.87697341 238.51586469 7.62771098 239.5108518 11.37908131 C239.79702368 12.44255787 240.08319555 13.50603443 240.3780393 14.60173756 C240.64874243 15.62654225 240.91944555 16.65134693 241.1983518 17.70720631 C241.57540258 19.12114674 241.57540258 19.12114674 241.96007055 20.56365162 C242.5108518 23.12908131 242.5108518 23.12908131 242.5108518 27.12908131 C158.3608518 27.12908131 74.2108518 27.12908131 -12.4891482 27.12908131 C-11.36051049 13.58542884 -11.36051049 13.58542884 -9.4891482 7.44158131 C-9.1385232 6.26208912 -8.7878982 5.08259693 -8.4266482 3.86736256 C-6.77086005 -0.96891866 -4.84303344 0.01136501 0 0 Z " fill="#0D2738" transform="translate(397.48914819955826,306.8709186911583)"/>
<path d="M0 0 C85.8 0 171.6 0 260 0 C260 7.92 260 15.84 260 24 C227.99 24 195.98 24 163 24 C162.01 20.7 161.02 17.4 160 14 C155.96668732 10.97501549 155.46226503 10.6236336 150.8359375 10.59594727 C149.80807129 10.58326309 148.78020508 10.57057892 147.72119141 10.55751038 C146.61694824 10.56044601 145.51270508 10.56338165 144.375 10.56640625 C143.23595215 10.5611644 142.0969043 10.55592255 140.92333984 10.55052185 C138.51595881 10.5441006 136.10854641 10.54543994 133.70117188 10.55395508 C130.01375628 10.56246824 126.32788766 10.53369744 122.640625 10.50195312 C120.3020838 10.50034115 117.96353985 10.50091857 115.625 10.50390625 C114.52075684 10.49267227 113.41651367 10.48143829 112.27880859 10.46986389 C111.25094238 10.47924484 110.22307617 10.48862579 109.1640625 10.49829102 C108.26123535 10.49845718 107.3584082 10.49862335 106.42822266 10.49879456 C103.03622362 11.1989315 102.05974309 12.20417449 100 15 C99.01 17.97 98.02 20.94 97 24 C64.99 24 32.98 24 0 24 C0 16.08 0 8.16 0 0 Z " fill="#0D2636" transform="translate(382,344)"/>
<path d="M0 0 C23.1 0 46.2 0 70 0 C70 5.94 70 11.88 70 18 C53.83 18 37.66 18 21 18 C21 25.59 21 33.18 21 41 C34.86 41 48.72 41 63 41 C63 46.94 63 52.88 63 59 C49.14 59 35.28 59 21 59 C21 66.59 21 74.18 21 82 C37.17 82 53.34 82 70 82 C70 87.61 70 93.22 70 99 C69 100 69 100 66.26023865 100.12025452 C65.03668167 100.11803391 63.81312469 100.11581329 62.55249023 100.11352539 C61.86842889 100.11364593 61.18436754 100.11376646 60.47957706 100.11389065 C58.25588337 100.11314171 56.03227254 100.10551441 53.80859375 100.09765625 C52.43949423 100.09618677 51.07039414 100.0951661 49.70129395 100.09460449 C44.61335409 100.08935232 39.52542624 100.07539122 34.4375 100.0625 C23.073125 100.041875 11.70875 100.02125 0 100 C0 67 0 34 0 0 Z " fill="#217E96" transform="translate(430,434)"/>
<path d="M0 0 C24.42 0 48.84 0 74 0 C74 18.34183469 74 18.34183469 67.5 25.6875 C66.11788351 27.38362089 64.73639407 29.0802529 63.35546875 30.77734375 C62.63665527 31.63312012 61.9178418 32.48889648 61.17724609 33.37060547 C57.57644066 37.71918974 54.20904359 42.24141932 50.8125 46.75 C49.47893145 48.50081313 48.14431353 50.25082752 46.80859375 52 C43.32113893 56.57613119 39.83911751 61.15617109 36.375 65.75 C35.91456299 66.35682617 35.45412598 66.96365234 34.97973633 67.58886719 C31.44567849 72.28884655 28.27816287 77.08275569 25 82 C41.5 82 58 82 75 82 C75 87.94 75 93.88 75 100 C65.10810217 100.02255176 55.2162213 100.04091552 45.32430363 100.05181217 C40.7315736 100.05704082 36.138862 100.06413812 31.54614258 100.07543945 C27.11766312 100.086269 22.68920144 100.09227698 18.26070976 100.09487724 C16.56734372 100.09673137 14.87397871 100.10035175 13.18062019 100.10573006 C10.81708768 100.1129414 8.45362955 100.1139909 6.09008789 100.11352539 C5.38302704 100.11712067 4.67596619 100.12071594 3.94747925 100.12442017 C-0.88594784 100.11405216 -0.88594784 100.11405216 -2 99 C-3.55747215 91.84181673 -3.42958049 85.76128191 0.55859375 79.515625 C3.50656024 75.38205852 6.69864026 71.44859956 9.9296875 67.53417969 C13.40502466 63.28017028 16.68802354 58.8814899 20 54.5 C21.33941535 52.74706841 22.67925839 50.99446353 24.01953125 49.2421875 C31.8549534 38.95735677 39.48519254 28.52073044 47 18 C31.49 18 15.98 18 0 18 C0 12.06 0 6.12 0 0 Z " fill="#217E96" transform="translate(521,434)"/>
<path d="M0 0 C13.86 0 27.72 0 42 0 C42.1546875 8.415 42.1546875 8.415 42.3125 17 C42.35802002 18.75441406 42.40354004 20.50882812 42.45043945 22.31640625 C42.5728548 30.43926602 42.57068572 36.58577716 37 43 C33.22829043 46.77170957 26.77716929 45.41385156 21.6875 45.4375 C20.45064453 45.47037109 19.21378906 45.50324219 17.93945312 45.53710938 C8.86988566 45.5910074 8.86988566 45.5910074 4.83203125 42.84765625 C1.13462326 37.10051248 -0.44255398 32.83235589 -0.29296875 25.9765625 C-0.28994751 25.31422607 -0.28692627 24.65188965 -0.28381348 23.96948242 C-0.26824676 21.52116061 -0.2263636 19.07306284 -0.1875 16.625 C-0.125625 11.13875 -0.06375 5.6525 0 0 Z " fill="#0D2737" transform="translate(491,365)"/>
<path d="M0 0 C4.8865712 2.37378294 7.45109279 6.67012591 9.78515625 11.3671875 C12.2588784 18.78835395 11.15406799 26.18042906 7.98828125 33.203125 C5.24759409 38.13280256 2.03501108 40.60446252 -3.21484375 42.3671875 C-10.32850922 43.26951085 -15.46656 42.70772829 -21.21484375 38.3671875 C-26.17399807 33.40803318 -28.32355099 27.41589546 -28.71484375 20.4921875 C-28.46683989 13.77541642 -25.85709615 8.49551463 -21.55859375 3.40625 C-15.49941597 -2.06241469 -7.62933848 -2.17981099 0 0 Z " fill="#227D93" transform="translate(595.21484375,687.6328125)"/>
<path d="M0 0 C5.61 0 11.22 0 17 0 C16.5875 1.423125 16.175 2.84625 15.75 4.3125 C15.16082816 6.54013066 14.57827377 8.76951547 14 11 C13.65195312 12.26585937 13.30390625 13.53171875 12.9453125 14.8359375 C9.00581689 30.3324807 9.19606618 46.10883591 9 62 C1.74 62 -5.52 62 -13 62 C-13.11635439 57.71557265 -13.215365 53.43686373 -13.2746582 49.15209961 C-13.29943045 47.70236405 -13.33325955 46.25274811 -13.37719727 44.8034668 C-13.79456482 30.65716171 -10.82303651 18.95970296 -3.6875 6.5625 C-2.470625 4.396875 -1.25375 2.23125 0 0 Z " fill="#0D2736" transform="translate(362,307)"/>
<path d="M0 0 C5.61 0 11.22 0 17 0 C23.60700486 11.67749695 30.30920106 23.74127232 30.1953125 37.46484375 C30.1924826 38.14301651 30.18965271 38.82118927 30.18673706 39.51991272 C30.17565416 41.65929766 30.1505736 43.7982443 30.125 45.9375 C30.11495476 47.39908244 30.10583163 48.86067153 30.09765625 50.32226562 C30.07746598 53.88180996 30.03829791 57.44042171 30 61 C23.07 61 16.14 61 9 61 C8.90203125 58.98261719 8.8040625 56.96523438 8.703125 54.88671875 C7.90650224 39.96596528 6.86257818 25.5006215 3 11 C2.69449219 9.81535156 2.38898437 8.63070313 2.07421875 7.41015625 C1.41467727 4.93140557 0.7140845 2.46359153 0 0 Z " fill="#0E283A" transform="translate(645,307)"/>
<path d="M0 0 C3.50625 -0.0825 7.0125 -0.165 10.625 -0.25 C11.71893066 -0.28641602 12.81286133 -0.32283203 13.93994141 -0.36035156 C19.80562707 -0.42706822 23.45202218 -0.10322289 28 4 C30.76055304 6.90645964 31.43128699 8.88624618 31.4375 12.875 C31.27474418 18.68281299 29.0585319 21.9414681 25 26 C25.6496875 27.14339844 26.299375 28.28679688 26.96875 29.46484375 C27.81261164 30.95566598 28.65635558 32.44655484 29.5 33.9375 C29.92925781 34.69224609 30.35851562 35.44699219 30.80078125 36.22460938 C31.40986328 37.30258789 31.40986328 37.30258789 32.03125 38.40234375 C32.59682617 39.39995728 32.59682617 39.39995728 33.17382812 40.41772461 C34 42 34 42 34 43 C30.7 43 27.4 43 24 43 C23.50371094 41.92878906 23.00742187 40.85757813 22.49609375 39.75390625 C21.81126267 38.35610035 21.12498859 36.95900077 20.4375 35.5625 C20.11458984 34.85544922 19.79167969 34.14839844 19.45898438 33.41992188 C19.12060547 32.74638672 18.78222656 32.07285156 18.43359375 31.37890625 C18.13509521 30.7557251 17.83659668 30.13254395 17.52905273 29.49047852 C15.50839716 27.22770917 15.50839716 27.22770917 9 27 C9 32.28 9 37.56 9 43 C6.03 43 3.06 43 0 43 C0 28.81 0 14.62 0 0 Z " fill="#217B91" transform="translate(614,687)"/>
<path d="M0 0 C21 0 21 0 28 4 C31.21468755 7.62948594 31.51168668 11.09476265 31.36328125 15.78125 C30.65015301 20.13669988 28.02544072 22.97455928 25 26 C25.5775 27.05960938 26.155 28.11921875 26.75 29.2109375 C27.50021788 30.59884058 28.25020601 31.98686787 29 33.375 C29.57234375 34.42300781 29.57234375 34.42300781 30.15625 35.4921875 C33 40.7734375 33 40.7734375 33 43 C30.03 43 27.06 43 24 43 C23.50371094 41.92878906 23.00742187 40.85757813 22.49609375 39.75390625 C21.81126267 38.35610035 21.12498859 36.95900077 20.4375 35.5625 C20.11458984 34.85544922 19.79167969 34.14839844 19.45898438 33.41992188 C19.12060547 32.74638672 18.78222656 32.07285156 18.43359375 31.37890625 C18.13509521 30.7557251 17.83659668 30.13254395 17.52905273 29.49047852 C15.50839716 27.22770917 15.50839716 27.22770917 9 27 C9 32.28 9 37.56 9 43 C6.03 43 3.06 43 0 43 C0 28.81 0 14.62 0 0 Z " fill="#217A91" transform="translate(550,624)"/>
<path d="M0 0 C5.506875 -0.1546875 5.506875 -0.1546875 11.125 -0.3125 C12.2711377 -0.35802002 13.41727539 -0.40354004 14.59814453 -0.45043945 C23.04279813 -0.56519671 23.04279813 -0.56519671 26.6796875 2.39453125 C30.48075976 6.66273865 30.32952446 9.71797155 30.29296875 15.2890625 C29.90474346 18.88144049 28.73149278 20.67019733 26 23 C25.34 23 24.68 23 24 23 C24.86625 24.68029297 24.86625 24.68029297 25.75 26.39453125 C26.50031605 27.8670265 27.25029875 29.33969164 28 30.8125 C28.3815625 31.55048828 28.763125 32.28847656 29.15625 33.04882812 C29.5171875 33.76103516 29.878125 34.47324219 30.25 35.20703125 C30.58515625 35.8616333 30.9203125 36.51623535 31.265625 37.19067383 C32 39 32 39 32 42 C29.03 42 26.06 42 23 42 C22.5153125 40.92878906 22.030625 39.85757813 21.53125 38.75390625 C20.85575317 37.35600309 20.17858113 35.95890856 19.5 34.5625 C19.18546875 33.85544922 18.8709375 33.14839844 18.546875 32.41992188 C16.62778587 28.42584627 16.62778587 28.42584627 12.93359375 26.30419922 C10.47573112 25.9532013 10.47573112 25.9532013 7 26 C7 30.95 7 35.9 7 41 C4.69 41 2.38 41 0 41 C0 27.47 0 13.94 0 0 Z " fill="#217E94" transform="translate(321,625)"/>
<path d="M0 0 C9 0 9 0 11.0234375 1.58984375 C11.46945312 2.36457031 11.91546875 3.13929688 12.375 3.9375 C12.92027344 4.83082031 13.46554687 5.72414063 14.02734375 6.64453125 C14.67832031 7.75183594 15.32929687 8.85914063 16 10 C17.40921116 12.20085773 18.8385529 14.38768786 20.27172852 16.57299805 C22.5326925 20.03684921 24.76318297 23.52050685 27 27 C27.33 18.09 27.66 9.18 28 0 C30.64 0 33.28 0 36 0 C36 14.19 36 28.38 36 43 C28 43 28 43 26.00390625 41.33984375 C25.52824219 40.54707031 25.05257812 39.75429688 24.5625 38.9375 C24.00304687 38.03773438 23.44359375 37.13796875 22.8671875 36.2109375 C21.94292969 34.62152344 21.94292969 34.62152344 21 33 C20.21329546 31.69909197 19.4241038 30.39968569 18.6328125 29.1015625 C17.04379961 26.48520052 15.4725757 23.85959757 13.91796875 21.22265625 C12.66439478 19.11634561 11.35963708 17.03945562 10 15 C9.67 24.24 9.34 33.48 9 43 C6.03 43 3.06 43 0 43 C0 28.81 0 14.62 0 0 Z " fill="#227D94" transform="translate(633,624)"/>
<path d="M0 0 C9 0 9 0 11.04394531 1.6171875 C11.46772461 2.36226562 11.89150391 3.10734375 12.328125 3.875 C12.81796875 4.69613281 13.3078125 5.51726563 13.8125 6.36328125 C14.286875 7.23339844 14.76125 8.10351562 15.25 9 C15.73984375 9.83917969 16.2296875 10.67835938 16.734375 11.54296875 C17.66283287 13.13566908 18.57779284 14.73638374 19.47363281 16.34765625 C21.55067002 19.95689045 23.79297247 23.46875594 26 27 C26.33 18.09 26.66 9.18 27 0 C29.64 0 32.28 0 35 0 C35 14.19 35 28.38 35 43 C27 43 27 43 24.87011719 41.07568359 C24.35094727 40.19219238 23.83177734 39.30870117 23.296875 38.3984375 C22.7090625 37.43292969 22.12125 36.46742188 21.515625 35.47265625 C20.93296875 34.45042969 20.3503125 33.42820312 19.75 32.375 C19.151875 31.37597656 18.55375 30.37695312 17.9375 29.34765625 C16.81545092 27.4734371 15.70557736 25.59183309 14.61230469 23.70068359 C12.84319739 20.73734851 10.91440655 17.87160983 9 15 C8.67 24.24 8.34 33.48 8 43 C5.36 43 2.72 43 0 43 C0 28.81 0 14.62 0 0 Z " fill="#217E94" transform="translate(489,687)"/>
<path d="M0 0 C2.97 0 5.94 0 9 0 C11.14469808 2.38952663 12.21348454 3.95380366 13.5625 6.75 C14.2991545 8.12266956 15.03879119 9.49374246 15.78125 10.86328125 C16.14476562 11.55502441 16.50828125 12.24676758 16.8828125 12.95947266 C19.56517745 17.85877472 22.86590581 22.38433401 26 27 C26.33 18.09 26.66 9.18 27 0 C29.64 0 32.28 0 35 0 C35 14.19 35 28.38 35 43 C27 43 27 43 24.85424805 41.05981445 C24.06594604 39.72503052 24.06594604 39.72503052 23.26171875 38.36328125 C22.37323242 36.90825195 22.37323242 36.90825195 21.46679688 35.42382812 C20.87962891 34.39708984 20.29246094 33.37035156 19.6875 32.3125 C19.08099609 31.30509766 18.47449219 30.29769531 17.84960938 29.25976562 C16.2064006 26.52108433 14.60094143 23.76350813 13 21 C12.44159424 20.10692139 11.88318848 19.21384277 11.30786133 18.29370117 C10 16 10 16 10 14 C9.34 14 8.68 14 8 14 C8 23.57 8 33.14 8 43 C5.36 43 2.72 43 0 43 C0 28.81 0 14.62 0 0 Z " fill="#207D94" transform="translate(364,687)"/>
<path d="M0 0 C2.97 0 5.94 0 9 0 C12.85817268 8.14111732 16.14681355 16.42021058 19.25 24.875 C19.69601562 26.07125 20.14203125 27.2675 20.6015625 28.5 C24.15588386 38.12897969 24.15588386 38.12897969 25 43 C22.03 43 19.06 43 16 43 C14.68 40.03 13.36 37.06 12 34 C7.05 34 2.1 34 -3 34 C-4.32 36.97 -5.64 39.94 -7 43 C-9.97 43 -12.94 43 -16 43 C-13.75017295 35.08860158 -10.98548797 27.47378898 -8 19.8125 C-7.56171875 18.67619141 -7.1234375 17.53988281 -6.671875 16.36914062 C-4.54222653 10.86861784 -2.37534448 5.39922051 0 0 Z " fill="#217C93" transform="translate(479,624)"/>
<path d="M0 0 C3.3 0 6.6 0 10 0 C13.72050742 8.8299498 17.30170876 17.7097464 20.8125 26.625 C21.31964087 27.90235193 21.82680223 29.17969571 22.33398438 30.45703125 C23.04458008 32.26107422 23.04458008 32.26107422 23.76953125 34.1015625 C24.19854736 35.18775879 24.62756348 36.27395508 25.06958008 37.39306641 C26 40 26 40 26 42 C22.7 42 19.4 42 16 42 C14.515 37.05 14.515 37.05 13 32 C7.72 32 2.44 32 -3 32 C-3.99 35.3 -4.98 38.6 -6 42 C-8.97 42 -11.94 42 -15 42 C-13.69826049 36.39757679 -12.04975454 31.13536455 -9.9609375 25.78125 C-9.67521881 25.03790405 -9.38950012 24.29455811 -9.09512329 23.52868652 C-8.19278765 21.18407715 -7.28401849 18.84202535 -6.375 16.5 C-5.75738312 14.89860303 -5.14019163 13.29704194 -4.5234375 11.6953125 C-3.02053171 7.79496198 -1.51185587 3.89688953 0 0 Z " fill="#227D94" transform="translate(602,625)"/>
<path d="M0 0 C2.97 0 5.94 0 9 0 C9.01458252 0.89307861 9.02916504 1.78615723 9.04418945 2.70629883 C9.10527077 6.02217278 9.17942478 9.33721899 9.26245117 12.65258789 C9.29569001 14.08704628 9.32372535 15.52163513 9.34643555 16.95629883 C9.38000271 19.01960807 9.43231413 21.08172303 9.48828125 23.14453125 C9.51446533 24.38565674 9.54064941 25.62678223 9.56762695 26.90551758 C9.75350085 29.9594084 9.75350085 29.9594084 11.34448242 31.9050293 C13.94808711 33.62707133 15.96815531 33.37898059 19 33 C21.55949546 31.14657225 21.97918798 30.06243607 23 27 C23.15029988 24.93637009 23.24844448 22.86876085 23.31640625 20.80078125 C23.35830078 19.59228516 23.40019531 18.38378906 23.44335938 17.13867188 C23.48267578 15.87603516 23.52199219 14.61339844 23.5625 13.3125 C23.60568359 12.03826172 23.64886719 10.76402344 23.69335938 9.45117188 C23.7995486 6.30089148 23.90159533 3.15053161 24 0 C26.64 0 29.28 0 32 0 C32.0994692 4.42905723 32.17174818 8.85750909 32.21972656 13.28735352 C32.23974363 14.79170062 32.26696627 16.29597089 32.30175781 17.80004883 C32.35071945 19.97236162 32.37306653 22.14363906 32.390625 24.31640625 C32.41157227 25.62037354 32.43251953 26.92434082 32.45410156 28.26782227 C31.8905673 32.89940735 30.60691803 35.15918456 28 39 C22.77912848 43.04617543 16.31986875 42.78889994 10 42 C5.96345889 40.0171377 3.3499944 37.83420139 1 34 C-0.17942085 30.46173745 -0.11289189 27.65851274 -0.09765625 23.92578125 C-0.0962413 23.2419487 -0.09482635 22.55811615 -0.09336853 21.8535614 C-0.08777876 19.67316278 -0.07522822 17.49286749 -0.0625 15.3125 C-0.05748367 13.83268378 -0.052921 12.35286594 -0.04882812 10.87304688 C-0.03781271 7.24866443 -0.02055512 3.6243423 0 0 Z " fill="#217E95" transform="translate(508,625)"/>
<path d="M0 0 C8.91 0 17.82 0 27 0 C27 2.31 27 4.62 27 7 C21.06 7 15.12 7 9 7 C9 10.63 9 14.26 9 18 C14.61 18 20.22 18 26 18 C26 20.31 26 22.62 26 25 C20.39 25 14.78 25 9 25 C9 28.63 9 32.26 9 36 C15.27 36 21.54 36 28 36 C28 38.31 28 40.62 28 43 C18.76 43 9.52 43 0 43 C0 28.81 0 14.62 0 0 Z " fill="#217B92" transform="translate(361,624)"/>
<path d="M0 0 C3.3 0 6.6 0 10 0 C11.50752893 4.26821354 13.00472959 8.53997809 14.5 12.8125 C14.92925781 14.02744141 15.35851562 15.24238281 15.80078125 16.49414062 C16.40986328 18.23920898 16.40986328 18.23920898 17.03125 20.01953125 C17.40830078 21.09307861 17.78535156 22.16662598 18.17382812 23.27270508 C19 26 19 26 19 29 C19.66 29 20.32 29 21 29 C21.13921875 27.58654297 21.13921875 27.58654297 21.28125 26.14453125 C22.00204204 21.10533195 23.77302826 16.45574527 25.5 11.6875 C25.82097656 10.78193359 26.14195312 9.87636719 26.47265625 8.94335938 C28.81755276 2.36489448 28.81755276 2.36489448 30 0 C33.3 0 36.6 0 40 0 C37.08581907 8.90614592 33.93869363 17.72919609 30.8125 26.5625 C30.24797357 28.1594793 29.68351983 29.75648429 29.11914062 31.35351562 C27.74693209 35.23597403 26.37373857 39.11808273 25 43 C21.7 43 18.4 43 15 43 C12.85966804 37.19909319 10.72352867 31.39666682 8.59130859 25.59277344 C7.86492928 23.61741169 7.13739367 21.64247475 6.40869141 19.66796875 C5.36318595 16.83443561 4.32180983 13.99941494 3.28125 11.1640625 C2.95314331 10.27756012 2.62503662 9.39105774 2.2869873 8.47769165 C1.98667603 7.65699188 1.68636475 6.83629211 1.37695312 5.99072266 C0.97724304 4.9048436 0.97724304 4.9048436 0.56945801 3.79702759 C0 2 0 2 0 0 Z " fill="#217D94" transform="translate(406,687)"/>
<path d="M0 0 C8.91 0 17.82 0 27 0 C27 2.31 27 4.62 27 7 C21.06 7 15.12 7 9 7 C9 10.63 9 14.26 9 18 C14.28 18 19.56 18 25 18 C25 19.98 25 21.96 25 24 C19.72 24 14.44 24 9 24 C9 27.96 9 31.92 9 36 C15.27 36 21.54 36 28 36 C28 38.31 28 40.62 28 43 C18.76 43 9.52 43 0 43 C0 28.81 0 14.62 0 0 Z " fill="#217C92" transform="translate(452,687)"/>
<path d="M0 0 C2.97697199 1.6610217 5.12446603 3.12393205 6.6875 6.25 C6.6875 7.57 6.6875 8.89 6.6875 10.25 C1.28645833 10.60416667 1.28645833 10.60416667 -1.3125 10.25 C-2.8125 8.25 -2.8125 8.25 -4.3125 6.25 C-7.14776419 5.74307127 -9.39065174 5.97172874 -12.3125 6.25 C-14.66223818 8.14755144 -14.66223818 8.14755144 -14.4375 11.375 C-14.375625 12.798125 -14.375625 12.798125 -14.3125 14.25 C-13.6834375 14.42015625 -13.054375 14.5903125 -12.40625 14.765625 C-5.53616577 16.71076933 0.86865514 18.6425685 6.1875 23.5625 C8.15130903 27.08099117 8.18472594 29.2721925 7.6875 33.25 C6.3274291 36.90519054 4.47402109 38.63638313 1.1875 40.5625 C-4.41383165 43.08980433 -10.61447259 43.50504741 -16.46484375 41.51953125 C-20.31621861 39.52463306 -22.62520882 37.2200969 -24.3125 33.25 C-24.3125 31.93 -24.3125 30.61 -24.3125 29.25 C-21.3425 29.25 -18.3725 29.25 -15.3125 29.25 C-14.6525 30.57 -13.9925 31.89 -13.3125 33.25 C-10.26266004 34.77491998 -7.6701631 34.48562548 -4.3125 34.25 C-2.22265769 33.16325006 -2.22265769 33.16325006 -1.3125 31.25 C-0.99990419 29.15938769 -0.99990419 29.15938769 -2.3125 27.25 C-4.65530319 26.0785984 -6.86827629 25.15241284 -9.3125 24.25 C-19.19093261 20.28202455 -19.19093261 20.28202455 -22.3125 16.25 C-23.51440901 12.64427296 -23.63920315 10.0397565 -23.3125 6.25 C-18.4630749 -2.28498818 -8.42536473 -3.90406095 0 0 Z " fill="#217C93" transform="translate(420.3125,624.75)"/>
<path d="M0 0 C2.97 0 5.94 0 9 0 C11.64 4.95 14.28 9.9 17 15 C17.928125 13.453125 18.85625 11.90625 19.8125 10.3125 C20.875 8.54166667 21.9375 6.77083333 23 5 C23.4640625 4.071875 23.928125 3.14375 24.40625 2.1875 C26 0 26 0 28.26171875 -0.48828125 C29.06222656 -0.43027344 29.86273437 -0.37226562 30.6875 -0.3125 C31.49574219 -0.26738281 32.30398438 -0.22226562 33.13671875 -0.17578125 C33.75160156 -0.11777344 34.36648438 -0.05976562 35 0 C33.86161948 3.36060837 32.29473517 6.23258227 30.43359375 9.23046875 C23.42931222 20.69857065 20.30035285 29.52772471 21 43 C18.36 43 15.72 43 13 43 C13.06703125 41.88367188 13.1340625 40.76734375 13.203125 39.6171875 C13.5205122 25.43595937 8.52786744 15.79384056 1.08569336 3.94506836 C0 2 0 2 0 0 Z " fill="#227E95" transform="translate(650,687)"/>
<path d="M0 0 C10.89 0 21.78 0 33 0 C33 2.31 33 4.62 33 7 C28.71 7 24.42 7 20 7 C20 18.88 20 30.76 20 43 C17.36 43 14.72 43 12 43 C12 31.12 12 19.24 12 7 C8.04 7 4.08 7 0 7 C0 4.69 0 2.38 0 0 Z " fill="#217D94" transform="translate(531,687)"/>
<path d="M0 0 C11.22 0 22.44 0 34 0 C34 2.31 34 4.62 34 7 C29.71 7 25.42 7 21 7 C21 18.55 21 30.1 21 42 C18.36 42 15.72 42 13 42 C13 30.45 13 18.9 13 7 C8.71 7 4.42 7 0 7 C0 4.69 0 2.38 0 0 Z " fill="#217E95" transform="translate(432,624)"/>
<path d="M0 0 C10.56 0 21.12 0 32 0 C32 2.31 32 4.62 32 7 C28.04 7 24.08 7 20 7 C20 18.88 20 30.76 20 43 C17.36 43 14.72 43 12 43 C12 31.12 12 19.24 12 7 C8.04 7 4.08 7 0 7 C0 4.69 0 2.38 0 0 Z " fill="#217D94" transform="translate(676,624)"/>
<path d="M0 0 C3.06162534 2.58537251 4.72814166 4.18442498 6 8 C6.95614955 21.77223096 6.95614955 21.77223096 3 27 C0.51543895 28.95215511 -1.26468047 29.03368661 -4.4375 29.4375 C-8.91903826 28.88713565 -10.20852117 27.44829737 -13 24 C-14.55010133 20.89979734 -14.30795676 17.65092097 -14.375 14.25 C-14.41238281 13.54617188 -14.44976563 12.84234375 -14.48828125 12.1171875 C-14.55472271 8.14546454 -14.17828494 5.70427063 -11.6640625 2.546875 C-7.69665264 -1.24601537 -5.17128836 -1.44796074 0 0 Z " fill="#0C2130" transform="translate(591,694)"/>
<path d="M0 0 C2.64 0 5.28 0 8 0 C8 14.19 8 28.38 8 43 C5.36 43 2.72 43 0 43 C0 28.81 0 14.62 0 0 Z " fill="#208095" transform="translate(345,687)"/>
<path d="M0 0 C1.19109375 0.00773437 1.19109375 0.00773437 2.40625 0.015625 C3.2003125 0.01046875 3.994375 0.0053125 4.8125 0 C6.90625 0.265625 6.90625 0.265625 8.90625 2.265625 C9.15842118 4.96033791 9.27650884 7.50777624 9.28125 10.203125 C9.30574219 10.93208984 9.33023438 11.66105469 9.35546875 12.41210938 C9.38481527 17.74828472 9.38481527 17.74828472 7.07421875 20.24609375 C4.14697704 21.6226885 2.10171192 21.67355631 -1.09375 21.265625 C-2.7578125 20.24609375 -2.7578125 20.24609375 -4.09375 18.265625 C-4.36482281 15.48785738 -4.46745959 12.97224666 -4.40625 10.203125 C-4.40947266 9.47029297 -4.41269531 8.73746094 -4.41601562 7.98242188 C-4.3409479 0.55071727 -4.3409479 0.55071727 0 0 Z " fill="#227F97" transform="translate(510.09375,378.734375)"/>
<path d="M0 0 C10.14938489 -0.48330404 10.14938489 -0.48330404 13.75 1.5625 C15.54963144 5.07178131 15.03774589 7.26411481 14 11 C9.43362969 14.04424687 5.43284541 13.12783166 0 13 C0 8.71 0 4.42 0 0 Z " fill="#0C2636" transform="translate(558,631)"/>
<path d="M0 0 C10.47610182 -0.36974477 10.47610182 -0.36974477 12.83203125 1.29296875 C14.78547961 4.14800867 14.35745403 6.66376235 14 10 C12.83203125 11.70703125 12.83203125 11.70703125 11 13 C7.29631297 13.40199208 3.73655831 13.13187853 0 13 C0 8.71 0 4.42 0 0 Z " fill="#0B202E" transform="translate(329,631)"/>
<path d="M0 0 C10.48684864 -0.37012407 10.48684864 -0.37012407 12.8359375 1.32421875 C14.62432877 3.89878202 14.31745118 5.95246868 14 9 C13.01 10.485 13.01 10.485 12 12 C7.97409284 12.41820365 4.05612469 12.12945079 0 12 C0 8.04 0 4.08 0 0 Z " fill="#0B2030" transform="translate(623,694)"/>
<path d="M0 0 C0.66 0 1.32 0 2 0 C2.67467562 1.74692795 3.33944156 3.49768525 4 5.25 C4.556875 6.71179688 4.556875 6.71179688 5.125 8.203125 C6 11 6 11 6 15 C2.7 15 -0.6 15 -4 15 C-2.91266548 9.87399439 -1.77362508 4.94081272 0 0 Z " fill="#0C2434" transform="translate(606,635)"/>
<path d="M0 0 C3.23897677 2.58573776 3.79301935 5.22622856 4.6875 9.1875 C5.06455078 10.81751953 5.06455078 10.81751953 5.44921875 12.48046875 C5.63097656 13.31191406 5.81273437 14.14335938 6 15 C2.7 15 -0.6 15 -4 15 C-3.43179252 9.54520815 -2.05362055 5.08940744 0 0 Z " fill="#0B2231" transform="translate(483,635)"/>
<path d="M0 0 C0.33 0 0.66 0 1 0 C1 9.57 1 19.14 1 29 C-2 25 -2 25 -2 23 C-1.34 23 -0.68 23 0 23 C0 15.41 0 7.82 0 0 Z " fill="#091524" transform="translate(390,687)"/>
<path d="M0 0 C2.64 0 5.28 0 8 0 C8 0.99 8 1.98 8 3 C5.03 3 2.06 3 -1 3 C-0.67 2.01 -0.34 1.02 0 0 Z " fill="#217689" transform="translate(588,664)"/>
<path d="M0 0 C0 0.66 0 1.32 0 2 C-2.97 2 -5.94 2 -9 2 C-9 1.34 -9 0.68 -9 0 C-2.25 -1.125 -2.25 -1.125 0 0 Z " fill="#1F768A" transform="translate(504,665)"/>
</svg>
