<?xml version="1.0" encoding="UTF-8"?>
<svg version="1.1" xmlns="http://www.w3.org/2000/svg" width="1024" height="1024">
<path d="M0 0 C337.92 0 675.84 0 1024 0 C1024 337.92 1024 675.84 1024 1024 C686.08 1024 348.16 1024 0 1024 C0 686.08 0 348.16 0 0 Z " fill="#0D2233" transform="translate(0,0)"/>
<path d="M0 0 C1.26285969 -0.01177436 2.52571939 -0.02354872 3.82684755 -0.03567988 C7.32120625 -0.06707458 10.81378514 -0.04873412 14.30811715 -0.02199829 C18.08059208 -0.00181575 21.85279209 -0.02775896 25.62522888 -0.04776001 C33.01098469 -0.07946625 40.39607296 -0.0680893 47.78182495 -0.04143386 C53.78470027 -0.02062612 59.7873923 -0.01582287 65.79029846 -0.02244759 C67.07222416 -0.0238533 67.07222416 -0.0238533 68.38004735 -0.02528741 C70.11622954 -0.02727293 71.85241169 -0.02930093 73.58859378 -0.03137095 C89.86582015 -0.04900773 106.14267968 -0.01839463 122.41982824 0.02924787 C136.38399123 0.06907614 150.34770387 0.06989517 164.31188965 0.04161072 C180.53113093 0.00878912 196.75011568 -0.00155753 212.96937704 0.02515787 C214.69914337 0.02795788 216.42890974 0.03073572 218.15867615 0.03349113 C219.00973632 0.03486605 219.8607965 0.03624097 220.73764637 0.03765755 C226.73274688 0.04585113 232.7277071 0.03817695 238.72279358 0.02450752 C246.02975151 0.00835571 253.33616711 0.01739972 260.64303553 0.05852479 C264.37072626 0.07889852 268.09754787 0.08814973 271.82525444 0.06703568 C275.86727833 0.04453327 279.90705981 0.07631676 283.94897461 0.11352539 C285.1261129 0.09859246 286.3032512 0.08365953 287.51606035 0.06827408 C293.024864 0.16399898 296.54336373 0.38701517 300.60254669 4.32732296 C303.62349973 7.88077999 305.96846571 11.74837959 308.0994873 15.88414001 C308.45526855 16.52093689 308.8110498 17.15773376 309.1776123 17.81382751 C317.48922488 33.59991184 318.19978686 49.22530875 318.10559082 66.70127869 C318.11073891 69.14722714 318.11802686 71.59317188 318.12727356 74.03910828 C318.1437691 79.94982639 318.13724097 85.86024039 318.11918534 91.77092852 C318.10508436 96.57455663 318.10128248 101.3780949 318.10462761 106.18174171 C318.10510505 106.868771 318.10558249 107.55580028 318.1060744 108.26364863 C318.10710084 109.65976119 318.1081562 111.05587372 318.10924017 112.45198623 C318.11777548 124.75015663 318.1012279 137.04816681 318.07141113 149.34629822 C318.04251186 161.26628831 318.03552702 173.18604828 318.05090332 185.10606384 C318.06766754 198.11967752 318.07170287 211.13318239 318.05419296 224.14679891 C318.0523487 225.5340365 318.05051397 226.92127411 318.04868889 228.30851173 C318.0477768 228.99091613 318.04686471 229.67332052 318.04592498 230.37640383 C318.04032627 235.17781607 318.04361988 239.979175 318.05023384 244.78058434 C318.0587748 251.23633288 318.04580304 257.69182446 318.01838493 264.14752197 C318.01149265 266.51707791 318.0114121 268.8866648 318.01860046 271.25621986 C318.02727487 274.48752007 318.01137268 277.71779108 317.989151 280.94900513 C317.99739177 281.88877817 318.00563254 282.82855121 318.01412302 283.79680222 C317.94364733 289.3392516 317.31077181 292.70447995 313.4744873 297.00914001 C309.76597602 299.66917464 307.23045671 300.38480087 302.69104099 300.38945675 C300.94692742 300.40211666 300.94692742 300.40211666 299.16757923 300.41503233 C297.89444133 300.40902228 296.62130342 300.40301224 295.30958557 300.39682007 C293.94010828 300.40099321 292.57063445 300.40647063 291.20116705 300.41313988 C287.43865614 300.42761587 283.67636388 300.42334312 279.91384089 300.41597307 C275.8558137 300.41124901 271.79783433 300.42374447 267.73982239 300.43399048 C259.79017543 300.45119873 251.84060744 300.45201431 243.89094669 300.44677757 C237.43039162 300.44273846 230.96985991 300.44417636 224.50930595 300.44952583 C223.13079074 300.45064847 223.13079074 300.45064847 221.72442673 300.45179378 C219.85754478 300.45332523 217.99066284 300.45486358 216.1237809 300.45640875 C198.61109689 300.47014108 181.09845753 300.46469092 163.58577453 300.45322353 C147.5595823 300.44329006 131.53350551 300.45623249 115.50733108 300.48015773 C99.05641126 300.50453226 82.60554524 300.51416067 66.15460771 300.507505 C56.91673357 300.50400915 47.67894823 300.50626891 38.44108772 300.52375603 C30.57719333 300.53845743 22.71345026 300.5391405 14.8495589 300.52168512 C10.836633 300.51315572 6.82397767 300.51107258 2.81106567 300.52633667 C-0.86231594 300.54013641 -4.53519398 300.53548208 -8.20854611 300.51609743 C-10.16732538 300.51053378 -12.12612998 300.52464823 -14.08486122 300.53945154 C-25.06288302 300.44699736 -25.06288302 300.44699736 -29.5255127 296.00914001 C-33.13404967 290.8980354 -32.95403564 285.96384427 -32.91992188 279.942276 C-32.92601298 278.93163397 -32.93210408 277.92099193 -32.93837976 276.87972438 C-32.95502297 273.49452591 -32.95023182 270.10970304 -32.94543457 266.72447205 C-32.95277448 264.29637257 -32.96136048 261.86827659 -32.97109985 259.44018555 C-32.99103108 253.52803492 -32.99669527 247.61597575 -32.99491197 241.70380123 C-32.99360263 236.89237981 -32.99741727 232.08098889 -33.00483704 227.26957321 C-33.00693636 225.88175833 -33.00903396 224.49394346 -33.01112986 223.10612857 C-33.01217338 222.41525189 -33.01321691 221.7243752 -33.01429206 221.01256286 C-33.03319182 207.94755164 -33.03214623 194.88259657 -33.02532274 181.81757735 C-33.01975829 169.89470461 -33.04052607 157.9720475 -33.0736832 146.04922511 C-33.10751976 133.78604484 -33.12257546 121.52296752 -33.11796618 109.25973976 C-33.11573011 102.38348492 -33.12083596 95.50742887 -33.14585876 88.63121414 C-33.16922569 82.15505687 -33.16616844 75.67923222 -33.14593124 69.20306206 C-33.14253712 66.8360897 -33.14754064 64.46908683 -33.16191483 62.10215569 C-33.23708174 48.79820689 -32.5961 37.4300174 -27.5255127 25.00914001 C-27.16304192 24.12039248 -26.80057114 23.23164494 -26.42711639 22.31596565 C-25.57731358 20.33065572 -24.64586515 18.42488115 -23.6505127 16.50914001 C-23.35016113 15.88523376 -23.04980957 15.26132751 -22.74035645 14.61851501 C-17.20944858 3.69215009 -12.44909443 -0.19594596 0 0 Z " fill="#227F96" transform="translate(369.5255126953125,294.99085998535156)"/>
<!-- truncated for brevity: same paths as src/assets/EZLogo.svg -->
</svg>
